<svg height="9.964" viewBox="0 0 17.735 9.964" width="17.735" xmlns="http://www.w3.org/2000/svg"><path d="m17.661 59.005a9.153 9.153 0 0 1 -3.5 3.709l1.875 1.875a.693.693 0 1 1 -.98.98l-2.2-2.2a10.37 10.37 0 0 1 -3.293.762v3.14a.693.693 0 0 1 -1.386 0v-3.14a10.37 10.37 0 0 1 -3.293-.762l-2.2 2.2a.693.693 0 1 1 -.98-.98l1.875-1.875a9.153 9.153 0 0 1 -3.5-3.709.693.693 0 0 1 1.237-.625 8.387 8.387 0 0 0 7.556 4.387 8.387 8.387 0 0 0 7.556-4.387.693.693 0 1 1 1.237.624z" fill="#a2a2a2" transform="translate(0 -58)"/></svg>