<svg xmlns="http://www.w3.org/2000/svg" width="24" height="24" viewBox="0 0 100 100" id="refresh">
	<path d="M63.4 25.7l-20.1-20C41.8 4.2 40 5.4 40 7v8.9c-.9-.1-1.9-.1-2.8-.1-15 0-27.2 12.1-27.2 27 0 10.1 5.6 19.3 14.6 24 2 1.1 3.8-1.5 2.5-3.1-2.4-2.8-3.7-6.5-3.7-10.2 0-8.8 7.3-15.9 16.1-15.9h.5V47c0 1.9 2.2 2.5 3.3 1.4l20.1-20c.8-.7.8-1.9 0-2.7zM43.9 42.3v-6.5c0-2.4-3.1-2.2-4.5-2.2-11 0-20 8.9-20 19.9 0 1.6.2 3.1.6 4.6-3.8-4.2-5.9-9.6-5.9-15.4 0-12.7 10.4-23 23.2-23 1.4 0 2.9.1 4.3.4 1.2.2 2.4-.7 2.4-2v-6.4l15.3 15.2-15.4 15.4zm31.5-9c-2-1-3.8 1.4-2.5 3.1 2.4 2.8 3.7 6.5 3.7 10.2 0 8.8-7.4 15.9-16.2 15.9h-.5V53c0-2-2.2-2.4-3.2-1.4l-20.1 20c-.8.8-.8 2.1 0 2.8l20.1 20c1.1 1.1 3.3.6 3.3-1.4v-8.9c.9.1 1.9.1 2.8.1 15 0 27.2-12.1 27.2-27 0-10.1-5.6-19.2-14.6-23.9zm-12.6 47c-1.5 0-2.9-.1-4.3-.4-1.2-.2-2.4.7-2.4 2v6.4L40.8 73l15.3-15.2v6.5c0 1 .7 1.8 1.7 2 .9.1 1.8.2 2.8.2 11 0 20-8.9 20-19.9 0-1.6-.2-3.1-.6-4.6 3.8 4 6 9.5 6 15.3 0 12.7-10.4 23-23.2 23z">
	</path>
	<path fill="#00F" d="M244-510v1684h-1784V-510H244m8-8h-1800v1700H252V-518z">
	</path>
</svg>
